<svg width="848" height="707" viewBox="0 0 848 707" fill="none" xmlns="http://www.w3.org/2000/svg">
<g clip-path="url(#clip0_155_151)">
<path d="M552.423 4.25568C517.853 6.5 523 4.25568 523 4.25568L515.5 235L2 233C2 233 2 223.5 2 261C2 298.5 27 346.792 53.9913 346.792C79.3107 349.523 103.851 337.337 126.474 324.455C149.098 311.572 172.186 297.369 197.579 295.58C222.972 293.792 251.462 308.816 257.481 336.176C262.716 359.983 249.408 384.55 232.074 399.783C218.505 411.709 202.581 419.652 187.199 428.583C182.928 431.055 178.701 433.612 174.579 436.345C164.025 443.356 154.541 451.565 145.524 460.838C136.059 470.558 127.18 481.373 119.798 493.098C113.907 502.441 108.767 512.337 104.437 522.673C103.777 524.251 103.137 525.852 102.515 527.475C101.926 529.026 101.356 530.598 100.815 532.185C93.7551 552.77 91.0048 575.837 100.024 595.053C109.021 614.217 128.507 625.564 147.965 627.138C159.22 627.881 169.754 626.584 180.448 622.631C217.512 609.194 268.75 564.56 288.654 527.087C308.557 489.614 335.935 390.378 364.845 362.686C393.753 334.988 429.979 314.047 468.215 314.365C506.449 314.677 545.865 340.462 556.724 381.036C572.552 350.849 591.228 195.777 589.815 160.913C589.815 111.844 585.076 37.7161 552.423 4.25568Z" fill="#08172E"/>
<path d="M385.893 300.953C383.573 300.953 381.692 298.871 381.692 296.304C381.692 293.736 383.573 291.654 385.893 291.654C388.213 291.654 390.094 293.736 390.094 296.304C390.094 298.871 388.213 300.953 385.893 300.953Z" fill="#6C63FF"/>
<path d="M544.2 307.6C540.613 307.6 537.706 304.382 537.706 300.412C537.706 296.442 540.613 293.224 544.2 293.224C547.787 293.224 550.695 296.442 550.695 300.412C550.695 304.382 547.787 307.6 544.2 307.6Z" fill="#FF6584"/>
<path d="M93.3996 236.312C92.0743 236.312 90.9999 235.123 90.9999 233.656C90.9999 232.189 92.0743 231 93.3996 231C94.725 231 95.7993 232.189 95.7993 233.656C95.7993 235.123 94.725 236.312 93.3996 236.312Z" fill="#FF6584"/>
<path d="M256.4 306.312C255.074 306.312 254 305.123 254 303.656C254 302.189 255.074 301 256.4 301C257.725 301 258.799 302.189 258.799 303.656C258.799 305.123 257.725 306.312 256.4 306.312Z" fill="#FF6584"/>
<path d="M187.273 437.546C186.592 435.369 185.199 432.291 184.064 430.359C179.793 432.832 173.669 436.368 162.821 444.88C153.782 452.891 151.499 454.343 142.482 463.616C146.112 469.075 151.389 472.912 157.357 474.432C163.324 475.951 169.586 475.052 175.006 471.898C180.425 468.743 184.644 463.542 186.894 457.239C189.145 450.937 189.279 443.949 187.273 437.546Z" fill="#FF6584"/>
<path d="M491.125 274.152C489.769 274.152 488.67 272.936 488.67 271.436C488.67 269.935 489.769 268.719 491.125 268.719C492.48 268.719 493.579 269.935 493.579 271.436C493.579 272.936 492.48 274.152 491.125 274.152Z" fill="#F0F0F0"/>
<path d="M277.454 23.4326C276.099 23.4326 275 22.2165 275 20.7163C275 19.2161 276.099 18 277.454 18C278.81 18 279.908 19.2161 279.908 20.7163C279.908 22.2165 278.81 23.4326 277.454 23.4326Z" fill="#F0F0F0"/>
<path d="M556.454 40.4326C555.099 40.4326 554 39.2165 554 37.7163C554 36.2161 555.099 35 556.454 35C557.81 35 558.908 36.2161 558.908 37.7163C558.908 39.2165 557.81 40.4326 556.454 40.4326Z" fill="#F0F0F0"/>
<path d="M28.4542 297.433C27.0988 297.433 26 296.217 26 294.716C26 293.216 27.0988 292 28.4542 292C29.8096 292 30.9084 293.216 30.9084 294.716C30.9084 296.217 29.8096 297.433 28.4542 297.433Z" fill="#F0F0F0"/>
<path d="M167.672 209.054C166.317 209.054 165.218 207.838 165.218 206.338C165.218 204.838 166.317 203.622 167.672 203.622C169.027 203.622 170.126 204.838 170.126 206.338C170.126 207.838 169.027 209.054 167.672 209.054Z" fill="#F0F0F0"/>
<path d="M236.082 538.165C234.727 538.165 233.628 536.948 233.628 535.448C233.628 533.948 234.727 532.732 236.082 532.732C237.437 532.732 238.536 533.948 238.536 535.448C238.536 536.948 237.437 538.165 236.082 538.165Z" fill="#F0F0F0"/>
<path d="M551.454 96.4326C550.099 96.4326 549 95.2165 549 93.7163C549 92.2161 550.099 91 551.454 91C552.81 91 553.908 92.2161 553.908 93.7163C553.908 95.2165 552.81 96.4326 551.454 96.4326Z" fill="#F0F0F0"/>
<path d="M291.454 230.433C290.099 230.433 289 229.216 289 227.716C289 226.216 290.099 225 291.454 225C292.81 225 293.908 226.216 293.908 227.716C293.908 229.216 292.81 230.433 291.454 230.433Z" fill="#F0F0F0"/>
<path d="M186.311 551.508C182.265 538.545 175.493 526.832 166.553 517.334C165.373 516.084 164.159 514.875 162.911 513.709C150.552 502.138 135.271 495.063 119.149 493.449C113.258 502.791 108.118 512.687 103.788 523.023C103.128 524.602 102.488 526.203 101.866 527.826C101.278 529.377 100.707 530.949 100.166 532.536C93.1063 553.12 90.356 576.187 99.3754 595.403C108.372 614.567 127.858 625.915 147.316 627.488C158.571 628.231 169.85 626.582 180.544 622.63C186.337 611.257 189.742 598.588 190.506 585.56C190.603 583.921 190.651 582.279 190.665 580.631C190.728 570.719 189.255 560.869 186.311 551.508Z" fill="#6C63FF"/>
<path d="M218.794 534.297C214.852 521.726 200.105 514.326 177.261 513.451C172.69 513.273 167.663 515.377 162.911 513.709C139.857 505.617 118.94 510.905 101.866 527.825C101.278 529.377 100.707 530.949 100.166 532.536C100.393 532.442 100.622 532.354 100.851 532.266C123.923 523.404 146.825 518.231 166.553 517.334C170.198 517.172 174.547 514.837 177.143 517.283C197.998 536.926 212.103 528.696 215.523 535.554C220.517 545.571 211.656 561.18 195.621 576.211C194.035 577.7 192.383 579.173 190.665 580.631C190.65 582.279 190.603 583.921 190.506 585.56C193.093 583.444 195.544 581.304 197.859 579.139C215.301 562.789 222.734 546.863 218.794 534.297Z" fill="#E4E4E4"/>
<path d="M128.185 618.83C126.83 618.83 125.731 617.614 125.731 616.114C125.731 614.614 126.83 613.397 128.185 613.397C129.54 613.397 130.639 614.614 130.639 616.114C130.639 617.614 129.54 618.83 128.185 618.83Z" fill="#F0F0F0"/>
<path d="M171.606 583.893C170.251 583.893 169.152 582.677 169.152 581.177C169.152 579.677 170.251 578.461 171.606 578.461C172.962 578.461 174.06 579.677 174.06 581.177C174.06 582.677 172.962 583.893 171.606 583.893Z" fill="#F0F0F0"/>
<path d="M138.385 591.275C125.204 591.275 114.519 579.449 114.519 564.86C114.519 550.272 125.204 538.446 138.385 538.446C151.566 538.446 162.251 550.272 162.251 564.86C162.251 579.449 151.566 591.275 138.385 591.275Z" fill="#F0F0F0"/>
<path opacity="0.3" d="M406.697 251C401.118 251.29 389.579 254.356 377.075 258.321C364.579 262.289 351.024 267.13 337.643 271.919C314.217 280.295 290.793 288.668 267.37 297.038C264.15 298.187 260.921 299.347 257.683 300.516C256.444 302.311 255.21 304.124 254 305.954C256.846 304.841 259.704 303.763 262.553 302.737C274.725 298.359 285.287 295.471 297.101 291.488C315.281 285.364 334.461 277.32 353.062 269.83C371.662 262.334 393.002 254.265 406.697 251Z" fill="#F0F0F0"/>
<path opacity="0.3" d="M93.9338 235.785L41.2457 332.592L90.962 233.86C91.0199 233.546 91.1445 233.253 91.3255 233.003C91.5064 232.753 91.7386 232.555 92.0026 232.425C92.2666 232.294 92.555 232.235 92.8436 232.253C93.1323 232.271 93.413 232.364 93.6625 232.526C93.9121 232.687 94.1232 232.913 94.2783 233.183C94.4335 233.453 94.5283 233.76 94.5548 234.078C94.5814 234.397 94.5388 234.718 94.4308 235.015C94.3228 235.312 94.1525 235.576 93.9338 235.785Z" fill="#F0F0F0"/>
<path d="M122.543 505.364C121.188 505.364 120.089 504.148 120.089 502.648C120.089 501.148 121.188 499.932 122.543 499.932C123.899 499.932 124.998 501.148 124.998 502.648C124.998 504.148 123.899 505.364 122.543 505.364Z" fill="#F0F0F0"/>
<path d="M553.012 426.374C544.323 426.374 537.279 418.578 537.279 408.96C537.279 399.343 544.323 391.546 553.012 391.546C561.702 391.546 568.746 399.343 568.746 408.96C568.746 418.578 561.702 426.374 553.012 426.374Z" fill="#6C63FF"/>
<path d="M562.333 399.4C563.92 398.919 565.391 398.06 566.645 396.882C567.899 395.704 568.904 394.236 569.59 392.581C570.276 390.927 570.625 389.126 570.614 387.305C570.603 385.485 570.231 383.69 569.525 382.046L598.014 351.003L577.697 346.205L553.758 376.419C551.341 377.915 549.504 380.34 548.594 383.234C547.685 386.129 547.766 389.292 548.823 392.125C549.88 394.958 551.839 397.263 554.329 398.603C556.819 399.944 559.667 400.228 562.333 399.4Z" fill="#B79197"/>
<path d="M698.549 157.809L682.661 169.399L664.064 174.22C664.064 174.22 649.315 290.892 642.067 297.89C634.819 304.888 640.926 305.551 638.962 315.205C636.998 324.858 632.453 344.606 632.453 344.606C676.602 374.895 716.043 378.593 749.693 349.585C750.219 347.673 750.138 345.62 749.465 343.766C748.791 341.912 747.566 340.368 745.991 339.391C740.301 335.479 752.642 320.154 747.985 317.085C743.327 314.016 751.557 291.059 751.557 291.059L750.121 241.757L754.12 234.195L748.487 185.654L733.966 178.511L728.995 162.2L698.549 157.809Z" fill="#6C63FF"/>
<path d="M691.664 161.901L665.467 171.557C665.467 171.557 636.487 168.17 635.313 215.917C634.138 263.664 639.539 289.285 639.539 289.285C639.539 289.285 579.257 423.457 644.556 383.83L663.639 300.668L683.306 170.064L691.664 161.901Z" fill="#08172E"/>
<path d="M665.392 267.462L651.803 265.385C651.803 265.385 650.491 288.06 643.991 291.497C637.491 294.933 639.682 295.499 638.916 299.137C638.149 302.774 644.696 312.854 639.547 315.361C634.398 317.868 589.396 380.663 589.396 380.663L562.846 353.454C564.67 347.981 573.451 352.434 574.002 346.633C574.695 337.862 588.593 313.901 591.55 310.828C594.508 307.756 593.339 302.34 594.872 295.065C596.405 287.789 595.34 294.535 597.895 282.409C600.45 270.283 635.074 208.495 636.278 197.299C637.482 186.103 651.577 179.513 651.577 179.513L662.533 182.34L665.392 267.462Z" fill="#08172E"/>
<path d="M780.123 670.681L764.13 675.328L740.32 609.263L763.925 602.403L780.123 670.681Z" fill="#B79197"/>
<path d="M785.068 688.982L735.887 703.276L735.724 702.588C734.391 696.969 735.129 690.994 737.776 685.977C740.423 680.961 744.762 677.313 749.839 675.837L749.84 675.837L757.034 665.682L775.585 668.354L779.878 667.106L785.068 688.982Z" fill="#08172E"/>
<path d="M698.136 683.923L681.602 683.922L673.735 613.329L698.14 613.332L698.136 683.923Z" fill="#B79197"/>
<path d="M698.719 703.015L647.87 703.013V702.301C647.871 696.491 649.956 690.92 653.668 686.812C657.379 682.704 662.413 680.396 667.662 680.396H667.663L676.951 672.597L694.281 680.397L698.72 680.397L698.719 703.015Z" fill="#08172E"/>
<path d="M739.494 346.115C743.488 351.641 741.491 370.43 741.491 370.43C741.491 370.43 748.481 431.218 745.485 436.744C742.49 442.27 747.483 446.691 750.478 454.428C753.474 462.164 756.47 480.953 756.47 480.953C773.446 496.427 772.447 567.162 772.447 567.162L778.439 630.16C776.442 636.792 748.481 637.897 744.487 636.792C740.492 635.687 701.547 479.848 701.547 479.848C701.547 479.848 703.545 630.161 703.545 636.792C703.545 643.423 676.583 640.108 670.591 640.108C664.599 640.108 626.653 369.324 626.653 369.324V353.851L631.646 346.115C631.646 346.115 735.499 340.588 739.494 346.115Z" fill="#08172E"/>
<path d="M730.015 165.167L754.538 182.459L766.399 193.464L750.665 304.477C750.665 304.477 774.569 405.386 736.898 399.165C699.227 392.944 701.339 302.259 701.339 302.259L730.015 165.167Z" fill="#08172E"/>
<path d="M697.202 322.866C698.617 323.794 700.199 324.367 701.835 324.544C703.472 324.722 705.124 324.501 706.675 323.895C708.227 323.29 709.639 322.316 710.813 321.041C711.987 319.766 712.894 318.222 713.471 316.517L753.438 317.586L742.423 298.09L706.158 300.064C703.506 299.182 700.654 299.407 698.142 300.697C695.63 301.987 693.633 304.252 692.529 307.062C691.425 309.873 691.291 313.034 692.152 315.947C693.014 318.86 694.81 321.322 697.202 322.866Z" fill="#B79197"/>
<path d="M717.141 150.155C699.698 150.155 685.557 134.504 685.557 115.198C685.557 95.8914 699.698 80.2407 717.141 80.2407C734.585 80.2407 748.725 95.8914 748.725 115.198C748.725 134.504 734.585 150.155 717.141 150.155Z" fill="#B79297"/>
<path d="M752.966 92.2286C749.42 86.1559 742.765 82.1087 736.313 83.246C735.712 78.6888 733.994 74.4013 731.344 70.8503C728.694 67.2994 725.215 64.621 721.286 63.107C717.356 61.5929 713.126 61.3011 709.057 62.2634C704.988 63.2257 701.235 65.4052 698.208 68.5646C697.212 67.7887 696.052 67.3105 694.841 67.1763C693.629 67.0421 692.407 67.2565 691.292 67.7985C689.071 68.916 687.139 70.6323 685.673 72.7901C681.971 77.9 679.59 84.0253 678.784 90.514C677.977 97.0028 678.776 103.612 681.094 109.639C680.306 106.466 683.178 103.481 686.081 102.769C688.983 102.057 692.028 102.731 694.971 102.267C698.743 101.673 702.134 99.251 705.913 98.7059C709.088 98.2478 712.282 99.1489 715.378 100.052C718.475 100.955 721.66 101.876 724.84 101.458C728.02 101.04 732.116 114.379 732.061 123.774C732.051 125.554 732.382 127.84 733.954 128.218C735.89 128.683 737.012 125.726 738.854 124.92C739.704 124.65 740.614 124.756 741.394 125.215C742.174 125.675 742.763 126.451 743.036 127.381C743.268 128.326 743.293 129.319 743.108 130.277C742.924 131.235 742.535 132.131 741.975 132.889C740.842 134.393 739.497 135.684 737.993 136.712L738.752 137.411C740.014 139.257 742.633 139.337 744.452 138.195C746.192 136.89 747.601 135.115 748.545 133.037C751.911 126.84 754.864 120.237 756.052 113.127C757.24 106.017 756.513 98.3012 752.966 92.2286Z" fill="#25100B"/>
<path d="M741.815 196.729L756.008 183.267C756.008 183.267 772.579 188.991 775.389 201.023C797.506 232.322 809.417 268.878 812.616 309.919C783.741 321.989 748.385 326.271 710.348 327.333L718.215 294.682L772.299 283.798L741.815 196.729Z" fill="#08172E"/>
<path d="M792.102 687.625L799.684 674.14L801.198 681.846C801.464 683.196 801.729 684.567 801.975 685.927C804.129 683.892 806.42 682.009 808.662 680.203C815.545 674.674 822.425 669.137 829.302 663.594L827.149 677.416C825.821 685.927 824.435 694.613 821.15 702.394C820.786 703.276 820.393 704.147 819.97 704.996H787.972C787.715 704.207 787.537 703.389 787.441 702.558C787.433 702.504 787.43 702.449 787.431 702.394C786.93 697.116 789.565 692.142 792.102 687.625Z" fill="#4A5E49"/>
<path d="M509.321 672.133L494.978 646.622L492.113 661.2C491.61 663.753 491.108 666.348 490.643 668.921C486.569 665.071 482.234 661.509 477.993 658.091C464.97 647.631 451.954 637.157 438.944 626.67L443.018 652.82C445.529 668.922 448.153 685.352 454.366 700.074C455.055 701.742 455.799 703.389 456.599 704.996H517.135C517.622 703.504 517.959 701.957 518.139 700.383C518.154 700.281 518.16 700.178 518.157 700.074C519.107 690.088 514.121 680.678 509.321 672.133Z" fill="#4A5E49"/>
<path d="M520.573 705.54H586.434C589.436 705.536 592.313 704.215 594.435 701.866C596.557 699.517 597.751 696.333 597.755 693.011V437.271C597.751 433.949 596.557 430.764 594.435 428.415C592.313 426.067 589.436 424.745 586.434 424.742H520.573C517.572 424.745 514.695 426.067 512.572 428.415C510.45 430.764 509.257 433.949 509.253 437.271V693.011C509.257 696.333 510.45 699.517 512.572 701.866C514.695 704.215 517.572 705.536 520.573 705.54Z" fill="#E5E7EB"/>
<path d="M536.125 431.272H569.9C571.028 431.27 572.109 430.774 572.907 429.891C573.704 429.008 574.153 427.811 574.154 426.562V413.126C574.153 411.877 573.704 410.68 572.907 409.797C572.109 408.914 571.028 408.418 569.9 408.416H536.125C534.997 408.418 533.915 408.914 533.118 409.797C532.32 410.68 531.871 411.877 531.87 413.126V426.562C531.871 427.811 532.32 429.008 533.118 429.891C533.915 430.774 534.997 431.27 536.125 431.272Z" fill="#3F3D56"/>
<path d="M439.531 705.916L846.392 706.25C846.702 706.249 846.998 706.112 847.217 705.869C847.436 705.626 847.559 705.297 847.559 704.954C847.559 704.611 847.436 704.282 847.217 704.039C846.998 703.796 846.702 703.659 846.392 703.658L439.531 703.324C439.221 703.325 438.924 703.462 438.706 703.705C438.487 703.947 438.364 704.277 438.364 704.62C438.364 704.963 438.487 705.292 438.706 705.535C438.924 705.778 439.221 705.915 439.531 705.916Z" fill="#8D8B8B"/>
</g>
<defs>
<clipPath id="clip0_155_151">
<rect width="847" height="706" fill="white" transform="matrix(-1 0 0 1 847.562 0.25)"/>
</clipPath>
</defs>
</svg>
