<svg width="267" height="204" viewBox="0 0 267 204" fill="none" xmlns="http://www.w3.org/2000/svg">
<g clip-path="url(#clip0_187_891)">
<path d="M266.501 10.7065C266.501 3.95211 266.501 -2.48999 266.501 -2.48999H13.862C13.862 -2.48999 1.09708 -3.56368 -1.0304 -4.10052C-0.498535 1.80474 -0.339355 23.9322 11.2027 32.4048C22.9039 40.9942 38.9277 34.0125 46.0593 30.29C53.1908 26.5676 60.4689 22.4634 68.4737 21.9467C76.4783 21.43 85.4592 25.771 87.3567 33.6768C89.0068 40.5559 84.8118 47.6545 79.3474 52.0561C75.0702 55.5023 70.0504 57.7973 65.2016 60.378C63.8551 61.0924 62.5228 61.8312 61.2233 62.6209C57.8964 64.6467 54.9069 67.0186 52.0645 69.6982C49.0805 72.5067 46.2817 75.6319 43.9546 79.0199C42.0976 81.7195 40.4774 84.5789 39.1125 87.5655C38.9045 88.0217 38.7025 88.4842 38.5066 88.9531C38.3211 89.4014 38.1413 89.8555 37.9708 90.3142C35.7452 96.262 34.8782 102.927 37.7214 108.48C40.5574 114.017 46.7001 117.296 52.8338 117.751C56.3816 117.966 59.7024 117.591 63.0735 116.449C74.757 112.566 90.9088 99.669 97.1831 88.841C103.457 78.0131 112.088 49.3387 121.201 41.337C130.314 33.3335 141.733 27.2827 153.786 27.3746C165.839 27.4647 168.937 104.725 172.36 116.449C177.35 107.726 186.627 56.6314 190.976 45.0644C210.561 5.09452 255.332 13.0666 266.501 10.7065Z" fill="#08172E"/>
<path d="M147.09 22.1956C146.359 22.1956 145.766 21.5941 145.766 20.8521C145.766 20.1102 146.359 19.5087 147.09 19.5087C147.822 19.5087 148.415 20.1102 148.415 20.8521C148.415 21.5941 147.822 22.1956 147.09 22.1956Z" fill="#6C63FF"/>
<path d="M173.343 61.2418C172.213 61.2418 171.296 60.3119 171.296 59.1647C171.296 58.0176 172.213 57.0877 173.343 57.0877C174.474 57.0877 175.391 58.0176 175.391 59.1647C175.391 60.3119 174.474 61.2418 173.343 61.2418Z" fill="#FF6584"/>
<path d="M19.9372 52.1805C19.5194 52.1805 19.1807 51.8369 19.1807 51.413C19.1807 50.9892 19.5194 50.6456 19.9372 50.6456C20.3549 50.6456 20.6936 50.9892 20.6936 51.413C20.6936 51.8369 20.3549 52.1805 19.9372 52.1805Z" fill="#FF6584"/>
<path d="M24.1923 15.6752C23.7745 15.6752 23.4358 15.3316 23.4358 14.9078C23.4358 14.4839 23.7745 14.1403 24.1923 14.1403C24.6101 14.1403 24.9487 14.4839 24.9487 14.9078C24.9487 15.3316 24.6101 15.6752 24.1923 15.6752Z" fill="#FF6584"/>
<path d="M64.6435 63.4591C64.4288 62.8301 63.9898 61.9405 63.6321 61.3824C62.2856 62.0969 60.3551 63.1186 56.9357 65.5782C54.0862 67.8931 53.3667 68.3125 50.5243 70.992C51.6683 72.5693 53.3319 73.6782 55.2131 74.1173C57.0942 74.5563 59.0682 74.2965 60.7766 73.385C62.4851 72.4735 63.8148 70.9708 64.5243 69.1495C65.2338 67.3283 65.2761 65.3093 64.6435 63.4591Z" fill="#FF6584"/>
<path d="M172.774 49.5698C172.346 49.5698 172 49.2184 172 48.7849C172 48.3514 172.346 48 172.774 48C173.201 48 173.547 48.3514 173.547 48.7849C173.547 49.2184 173.201 49.5698 172.774 49.5698Z" fill="#F0F0F0"/>
<path d="M59.8551 30.9069C59.4279 30.9069 59.0815 30.5555 59.0815 30.122C59.0815 29.6886 59.4279 29.3372 59.8551 29.3372C60.2824 29.3372 60.6288 29.6886 60.6288 30.122C60.6288 30.5555 60.2824 30.9069 59.8551 30.9069Z" fill="#F0F0F0"/>
<path d="M73.1415 14.6364C72.7142 14.6364 72.3679 14.285 72.3679 13.8515C72.3679 13.4181 72.7142 13.0667 73.1415 13.0667C73.5688 13.0667 73.9152 13.4181 73.9152 13.8515C73.9152 14.285 73.5688 14.6364 73.1415 14.6364Z" fill="#F0F0F0"/>
<path d="M25.273 33.9746C24.8457 33.9746 24.4994 33.6232 24.4994 33.1897C24.4994 32.7562 24.8457 32.4048 25.273 32.4048C25.7003 32.4048 26.0466 32.7562 26.0466 33.1897C26.0466 33.6232 25.7003 33.9746 25.273 33.9746Z" fill="#F0F0F0"/>
<path d="M92.289 36.1101C91.8617 36.1101 91.5153 35.7587 91.5153 35.3252C91.5153 34.8918 91.8617 34.5403 92.289 34.5403C92.7162 34.5403 93.0626 34.8918 93.0626 35.3252C93.0626 35.7587 92.7162 36.1101 92.289 36.1101Z" fill="#F0F0F0"/>
<path d="M74.2428 165.265C73.8156 165.265 73.4692 164.914 73.4692 164.48C73.4692 164.047 73.8156 163.695 74.2428 163.695C74.6701 163.695 75.0165 164.047 75.0165 164.48C75.0165 164.914 74.6701 165.265 74.2428 165.265Z" fill="#F0F0F0"/>
<path d="M79.524 75.8364C79.0967 75.8364 78.7503 75.485 78.7503 75.0515C78.7503 74.6181 79.0967 74.2667 79.524 74.2667C79.9512 74.2667 80.2976 74.6181 80.2976 75.0515C80.2976 75.485 79.9512 75.8364 79.524 75.8364Z" fill="#F0F0F0"/>
<path d="M99.6398 56.564C99.2125 56.564 98.8662 56.2126 98.8662 55.7791C98.8662 55.3456 99.2125 54.9942 99.6398 54.9942C100.067 54.9942 100.413 55.3456 100.413 55.7791C100.413 56.2126 100.067 56.564 99.6398 56.564Z" fill="#F0F0F0"/>
<path d="M64.3404 96.3887C63.065 92.6428 60.9302 89.2583 58.1121 86.5141C57.74 86.1527 57.3573 85.8035 56.964 85.4665C53.068 82.1229 48.251 80.0787 43.1688 79.6122C41.3118 82.3118 39.6916 85.1713 38.3267 88.1579C38.1187 88.6141 37.9167 89.0766 37.7208 89.5455C37.5353 89.9938 37.3554 90.4479 37.185 90.9065C34.9594 96.8544 34.0924 103.52 36.9356 109.072C39.7716 114.61 45.9142 117.889 52.048 118.343C55.5958 118.558 59.1514 118.081 62.5225 116.939C64.3485 113.653 65.4218 109.992 65.6628 106.228C65.6933 105.754 65.7083 105.28 65.7129 104.804C65.7327 101.94 65.2685 99.0935 64.3404 96.3887Z" fill="#6C63FF"/>
<path d="M74.58 91.4156C73.3374 87.7831 68.6886 85.6449 61.4877 85.392C60.0467 85.3405 58.462 85.9485 56.964 85.4666C49.6965 83.1284 43.1031 84.6563 37.7208 89.5456C37.5352 89.9939 37.3554 90.448 37.1849 90.9066C37.2565 90.8795 37.3287 90.854 37.4009 90.8286C44.6737 88.2679 51.8932 86.7733 58.112 86.5141C59.2611 86.4671 60.6319 85.7926 61.4504 86.4993C68.0244 92.1753 72.4707 89.797 73.5487 91.7787C75.1232 94.6733 72.3299 99.1834 67.2752 103.527C66.7752 103.957 66.2544 104.382 65.7129 104.804C65.7083 105.28 65.6933 105.754 65.6628 106.228C66.4782 105.617 67.2508 104.998 67.9806 104.373C73.479 99.6484 75.8221 95.0464 74.58 91.4156Z" fill="#E4E4E4"/>
<path d="M46.0172 115.841C45.59 115.841 45.2436 115.49 45.2436 115.057C45.2436 114.623 45.59 114.272 46.0172 114.272C46.4445 114.272 46.7909 114.623 46.7909 115.057C46.7909 115.49 46.4445 115.841 46.0172 115.841Z" fill="#F0F0F0"/>
<path d="M59.7049 105.746C59.2776 105.746 58.9312 105.395 58.9312 104.962C58.9312 104.528 59.2776 104.177 59.7049 104.177C60.1321 104.177 60.4785 104.528 60.4785 104.962C60.4785 105.395 60.1321 105.746 59.7049 105.746Z" fill="#F0F0F0"/>
<path d="M49.2328 107.879C45.0778 107.879 41.7095 104.462 41.7095 100.247C41.7095 96.0315 45.0778 92.6142 49.2328 92.6142C53.3878 92.6142 56.7561 96.0315 56.7561 100.247C56.7561 104.462 53.3878 107.879 49.2328 107.879Z" fill="#F0F0F0"/>
<path opacity="0.3" d="M161.648 68.3665C159.889 68.4503 156.252 69.3363 152.31 70.4818C148.371 71.6285 144.098 73.0274 139.88 74.411C132.496 76.8312 125.112 79.2507 117.728 81.6693C116.713 82.0014 115.695 82.3363 114.674 82.6742C114.284 83.1928 113.895 83.7166 113.513 84.2456C114.41 83.9238 115.311 83.6125 116.209 83.3159C120.046 82.0508 123.376 81.2165 127.1 80.0656C132.831 78.2959 138.877 75.9717 144.741 73.8075C150.604 71.6415 157.331 69.31 161.648 68.3665Z" fill="#F0F0F0"/>
<path opacity="0.3" d="M19.609 53.0215L3.00006 80.994L18.6721 52.4651C18.6904 52.3745 18.7297 52.2897 18.7867 52.2176C18.8438 52.1455 18.9169 52.0882 19.0002 52.0505C19.0834 52.0128 19.1743 51.9958 19.2653 52.0009C19.3563 52.006 19.4448 52.033 19.5234 52.0797C19.6021 52.1264 19.6686 52.1914 19.7175 52.2695C19.7665 52.3475 19.7964 52.4362 19.8047 52.5283C19.8131 52.6204 19.7997 52.7131 19.7656 52.7989C19.7316 52.8847 19.6779 52.961 19.609 53.0215Z" fill="#D9DBDC"/>
<path d="M44.2388 83.0553C43.8115 83.0553 43.4652 82.7039 43.4652 82.2704C43.4652 81.8369 43.8115 81.4855 44.2388 81.4855C44.6661 81.4855 45.0125 81.8369 45.0125 82.2704C45.0125 82.7039 44.6661 83.0553 44.2388 83.0553Z" fill="#F0F0F0"/>
<path d="M174.837 122.588C172.236 122.588 170.128 120.449 170.128 117.811C170.128 115.173 172.236 113.034 174.837 113.034C177.437 113.034 179.545 115.173 179.545 117.811C179.545 120.449 177.437 122.588 174.837 122.588Z" fill="#6C63FF"/>
<path d="M177.626 115.188C178.101 115.056 178.542 114.821 178.917 114.497C179.292 114.174 179.593 113.771 179.798 113.318C180.003 112.864 180.108 112.37 180.104 111.87C180.101 111.371 179.99 110.879 179.779 110.428L188.304 101.912L182.224 100.596L175.06 108.884C174.337 109.294 173.787 109.96 173.515 110.754C173.242 111.548 173.267 112.415 173.583 113.192C173.9 113.97 174.486 114.602 175.231 114.97C175.976 115.337 176.828 115.415 177.626 115.188Z" fill="#B79197"/>
<path d="M218.391 48.915L213.637 52.0944L208.071 53.417C208.071 53.417 203.657 85.4222 201.488 87.342C199.319 89.2617 201.147 89.4437 200.559 92.0917C199.971 94.7398 198.611 100.157 198.611 100.157C211.823 108.466 223.627 109.48 233.697 101.523C233.855 100.999 233.83 100.435 233.629 99.9267C233.427 99.4181 233.06 98.9946 232.589 98.7265C230.887 97.6534 234.58 93.4495 233.186 92.6075C231.792 91.7656 234.255 85.468 234.255 85.468L233.825 71.9437L235.022 69.8693L233.336 56.5534L228.991 54.5942L227.503 50.1197L218.391 48.915Z" fill="#6C63FF"/>
<path d="M216.331 50.0377L208.491 52.6864C208.491 52.6864 199.818 51.7573 199.467 64.8552C199.115 77.953 200.731 84.9816 200.731 84.9816C200.731 84.9816 182.691 121.787 202.233 110.917L207.944 88.104L213.829 52.2769L216.331 50.0377Z" fill="#08172E"/>
<path d="M208.468 78.9951L204.401 78.4253C204.401 78.4253 204.009 84.6455 202.064 85.5882C200.118 86.531 200.774 86.6861 200.545 87.684C200.315 88.6819 202.275 91.447 200.734 92.1346C199.193 92.8223 185.725 110.048 185.725 110.048L177.78 102.584C178.326 101.083 180.953 102.305 181.118 100.713C181.326 98.3071 185.485 91.7341 186.37 90.8913C187.255 90.0486 186.905 88.5628 187.364 86.567C187.823 84.5711 187.504 86.4218 188.269 83.0954C189.033 79.769 199.395 62.8194 199.755 59.748C200.116 56.6767 204.334 54.8688 204.334 54.8688L207.613 55.6445L208.468 78.9951Z" fill="#08172E"/>
<path d="M242.804 189.606L238.017 190.881L230.892 172.758L237.956 170.876L242.804 189.606Z" fill="#B79197"/>
<path d="M244.283 194.626L229.565 198.547L229.516 198.359C229.117 196.817 229.338 195.178 230.13 193.802C230.923 192.426 232.221 191.425 233.74 191.02L233.741 191.02L235.894 188.235L241.445 188.968L242.73 188.625L244.283 194.626Z" fill="#08172E"/>
<path d="M218.267 193.238L213.319 193.238L210.965 173.873L218.268 173.874L218.267 193.238Z" fill="#B79197"/>
<path d="M218.442 198.476L203.225 198.475V198.28C203.225 196.686 203.849 195.158 204.96 194.031C206.071 192.904 207.577 192.271 209.148 192.271H209.148L211.928 190.132L217.114 192.271L218.442 192.271L218.442 198.476Z" fill="#08172E"/>
<path d="M230.645 100.571C231.84 102.087 231.242 107.241 231.242 107.241C231.242 107.241 233.334 123.917 232.438 125.433C231.541 126.949 233.035 128.161 233.932 130.284C234.828 132.406 235.725 137.56 235.725 137.56C240.805 141.805 240.506 161.209 240.506 161.209L242.3 178.491C241.702 180.31 233.334 180.613 232.139 180.31C230.943 180.006 219.288 137.257 219.288 137.257C219.288 137.257 219.886 178.491 219.886 180.31C219.886 182.129 211.817 181.219 210.024 181.219C208.231 181.219 196.875 106.938 196.875 106.938V102.694L198.369 100.571C198.369 100.571 229.449 99.0553 230.645 100.571Z" fill="#08172E"/>
<path d="M227.808 50.9335L235.147 55.6772L238.697 58.6961L233.988 89.1492C233.988 89.1492 241.142 116.83 229.868 115.124C218.594 113.417 219.226 88.5406 219.226 88.5406L227.808 50.9335Z" fill="#08172E"/>
<path d="M217.988 94.1935C218.411 94.448 218.885 94.6051 219.374 94.6539C219.864 94.7027 220.359 94.6419 220.823 94.4759C221.287 94.3098 221.71 94.0426 222.061 93.6929C222.412 93.3432 222.684 92.9196 222.856 92.4519L234.817 92.745L231.521 87.397L220.668 87.9386C219.874 87.6966 219.021 87.7583 218.269 88.1121C217.517 88.4659 216.92 89.0872 216.589 89.8582C216.259 90.6292 216.219 91.4964 216.477 92.2954C216.734 93.0945 217.272 93.7698 217.988 94.1935Z" fill="#B79197"/>
<path d="M223.955 46.8155C218.735 46.8155 214.503 42.5222 214.503 37.2261C214.503 31.93 218.735 27.6367 223.955 27.6367C229.176 27.6367 233.407 31.93 233.407 37.2261C233.407 42.5222 229.176 46.8155 223.955 46.8155Z" fill="#B79297"/>
<path d="M234.676 30.9252C233.615 29.2593 231.623 28.1491 229.692 28.4611C229.513 27.2109 228.998 26.0348 228.205 25.0607C227.413 24.0866 226.371 23.3519 225.195 22.9365C224.019 22.5212 222.753 22.4412 221.536 22.7052C220.318 22.9691 219.195 23.567 218.289 24.4337C217.991 24.2208 217.644 24.0897 217.281 24.0529C216.919 24.016 216.553 24.0748 216.219 24.2235C215.555 24.5301 214.977 25.0009 214.538 25.5928C213.43 26.9945 212.717 28.6748 212.476 30.4548C212.235 32.2348 212.474 34.0479 213.167 35.7011C212.931 34.8308 213.791 34.012 214.66 33.8167C215.528 33.6214 216.439 33.8061 217.32 33.679C218.449 33.516 219.464 32.8516 220.595 32.702C221.545 32.5764 222.501 32.8235 223.427 33.0713C224.354 33.3191 225.307 33.5717 226.259 33.4571C227.211 33.3424 228.437 37.0014 228.42 39.5786C228.417 40.067 228.516 40.6941 228.987 40.7977C229.566 40.9253 229.902 40.1141 230.453 39.893C230.707 39.8191 230.98 39.8482 231.213 39.9741C231.447 40.1 231.623 40.313 231.704 40.5681C231.774 40.8274 231.781 41.0998 231.726 41.3627C231.671 41.6255 231.555 41.8712 231.387 42.0792C231.048 42.4916 230.646 42.8457 230.195 43.1279L230.422 43.3195C230.8 43.8259 231.584 43.8478 232.128 43.5346C232.649 43.1768 233.071 42.6897 233.353 42.1197C234.361 40.4198 235.244 38.6086 235.6 36.6581C235.955 34.7077 235.738 32.591 234.676 30.9252Z" fill="#25100B"/>
<path d="M231.34 59.5918L235.587 55.899C235.587 55.899 240.546 57.469 241.387 60.7696C248.006 69.3557 251.571 79.3835 252.528 90.642C243.887 93.9531 233.306 95.1277 221.922 95.4189L224.277 86.4622L240.462 83.4766L231.34 59.5918Z" fill="#08172E"/>
<path d="M246.389 194.254L248.658 190.555L249.111 192.669C249.19 193.039 249.27 193.415 249.343 193.788C249.988 193.23 250.673 192.713 251.344 192.218C253.404 190.701 255.463 189.183 257.521 187.662L256.877 191.454C256.48 193.788 256.065 196.171 255.082 198.306C254.973 198.547 254.855 198.786 254.729 199.019H245.153C245.076 198.803 245.022 198.578 244.994 198.35C244.991 198.336 244.99 198.32 244.991 198.306C244.841 196.857 245.629 195.493 246.389 194.254Z" fill="#4A5E49"/>
<path d="M161.761 190.004L157.469 183.006L156.611 187.005C156.461 187.705 156.311 188.417 156.172 189.123C154.952 188.067 153.655 187.09 152.386 186.152C148.489 183.283 144.593 180.41 140.7 177.533L141.919 184.706C142.671 189.123 143.456 193.631 145.315 197.669C145.521 198.127 145.744 198.578 145.983 199.019H164.1C164.245 198.61 164.346 198.185 164.4 197.754C164.405 197.726 164.407 197.697 164.406 197.669C164.69 194.93 163.198 192.348 161.761 190.004Z" fill="#4A5E49"/>
<path d="M165.129 199.168H184.839C185.737 199.167 186.598 198.805 187.233 198.161C187.868 197.516 188.226 196.643 188.227 195.731V125.577C188.226 124.666 187.868 123.792 187.233 123.148C186.598 122.504 185.737 122.141 184.839 122.14H165.129C164.231 122.141 163.37 122.504 162.734 123.148C162.099 123.792 161.742 124.666 161.741 125.577V195.731C161.742 196.643 162.099 197.516 162.734 198.161C163.37 198.805 164.231 199.167 165.129 199.168Z" fill="#E5E7EB"/>
<path d="M169.783 123.931H179.891C180.228 123.931 180.552 123.795 180.791 123.552C181.029 123.31 181.164 122.982 181.164 122.639V118.953C181.164 118.611 181.029 118.283 180.791 118.04C180.552 117.798 180.228 117.662 179.891 117.661H169.783C169.446 117.662 169.122 117.798 168.883 118.04C168.645 118.283 168.51 118.611 168.51 118.953V122.639C168.51 122.982 168.645 123.31 168.883 123.552C169.122 123.795 169.446 123.931 169.783 123.931Z" fill="#3F3D56"/>
<path d="M140.876 199.271L262.636 199.363C262.728 199.363 262.817 199.325 262.883 199.259C262.948 199.192 262.985 199.102 262.985 199.008C262.985 198.913 262.948 198.823 262.883 198.757C262.817 198.69 262.728 198.652 262.636 198.652L140.876 198.56C140.783 198.561 140.694 198.598 140.629 198.665C140.563 198.731 140.526 198.822 140.526 198.916C140.526 199.01 140.563 199.1 140.629 199.167C140.694 199.233 140.783 199.271 140.876 199.271Z" fill="#8D8B8B"/>
</g>
<defs>
<clipPath id="clip0_187_891">
<rect width="267" height="204" fill="white" transform="matrix(-1 0 0 1 267 0)"/>
</clipPath>
</defs>
</svg>
