<svg width="21" height="20" viewBox="0 0 21 20" fill="none" xmlns="http://www.w3.org/2000/svg">
<circle cx="10.647" cy="10" r="9.5" fill="#08172E" stroke="white"/>
<path d="M15.9918 12.7586H12.3711V15.1724H13.0607L13.2332 15.6896C13.9473 15.8983 14.363 15.9193 15.1297 15.6896L15.3021 15.1724H15.9918V12.7586Z" fill="white"/>
<path d="M5.64709 13.1035L5.47468 6.72414H5.99192V6.2069C5.30226 6.2069 5.19667 4.52154 5.47468 3.96552C5.8195 3.27587 7.0264 3.10345 7.71606 3.6207C8.31482 4.06977 8.40571 5.34483 7.37123 6.2069V6.72414L7.88847 6.55173L10.8195 3.10345H11.854V3.96552H13.4057V5.17242H12.1988V6.89656H11.3367L10.9919 8.96552H12.1988V9.82759H13.4057V8.96552H14.0954V6.89656L15.1298 7.06897V5.86208H14.0954C14.1538 5.86208 14.0388 4.65389 14.0954 4.65518C18.0464 4.74525 17.7161 7.94564 17.7161 8.96552C17.7161 10.3448 15.9919 10.5172 15.9919 12.069H12.3712C12.3712 10.6897 10.9919 10.6897 10.9919 8.96552H8.06088V10.5172C10.8195 11.7241 10.8195 15.5172 10.8195 16.0345C10.1298 16.2069 10.1298 16.2069 9.44019 15.8621C9.26778 13.2759 8.92295 12.5862 7.19881 11.8966L7.0264 13.7931L4.44019 16.3793C3.75054 16.0345 3.75054 16.0345 3.57812 15.1724L5.64709 13.1035Z" fill="white"/>
<path d="M10.3019 7.75859H8.06055L9.09503 6.5517H10.3019V7.75859Z" fill="#08172E"/>
</svg>
