<svg width="24" height="22" viewBox="0 0 24 22" fill="none" xmlns="http://www.w3.org/2000/svg">
<path d="M5.29918 1.07443L4.88316 1.35178C4.91586 1.40083 4.95699 1.44372 5.00463 1.47845L5.29918 1.07443ZM8.433 5.97102L8.88021 5.74741C8.79346 5.57391 8.6142 5.46624 8.42028 5.47118L8.433 5.97102ZM5.29918 8.51724L5.77328 8.35838C5.77025 8.34934 5.76696 8.3404 5.76342 8.33155L5.29918 8.51724ZM9.41232 15.7642L9.77069 15.4155L9.41232 15.7642ZM12.5461 14.0014L12.2502 14.4044L12.5461 14.0014ZM16.0717 19.4856L15.5806 19.5798C15.5847 19.6012 15.5902 19.6223 15.5971 19.6429L16.0717 19.4856ZM10.5875 20.8567L10.4894 21.347L10.5875 20.8567ZM5.69091 17.1352L5.277 17.4157C5.28358 17.4254 5.2905 17.4349 5.29775 17.4441L5.69091 17.1352ZM2.16537 11.0635L1.70585 11.2606C1.70913 11.2682 1.7126 11.2758 1.71625 11.2832L2.16537 11.0635ZM1.38191 5.18756L0.893879 5.07883L1.38191 5.18756ZM8.43199 5.97104L7.94437 6.08162C7.99707 6.31403 8.20647 6.47694 8.4447 6.47088L8.43199 5.97104ZM22.9259 4.79583H23.4259C23.4259 4.51969 23.202 4.29583 22.9259 4.29583V4.79583ZM22.9259 16.5476V17.0476C23.202 17.0476 23.4259 16.8238 23.4259 16.5476H22.9259ZM17.051 16.0476C16.7749 16.0476 16.551 16.2715 16.551 16.5476C16.551 16.8238 16.7749 17.0476 17.051 17.0476V16.0476ZM14.112 12.2387L13.7932 12.6239C13.9738 12.7733 14.234 12.7773 14.419 12.6334L14.112 12.2387ZM8.75074 7.15276C8.53801 6.9767 8.22282 7.00643 8.04676 7.21917C7.8707 7.43191 7.90044 7.74709 8.11318 7.92315L8.75074 7.15276ZM8.16547 4.79583V4.29583H7.53939L7.67786 4.90642L8.16547 4.79583ZM7.98579 6.19462C7.96634 6.15573 7.95517 6.10204 7.96319 6.04651C7.97022 5.99782 7.98812 5.97419 7.9852 5.97836C7.9726 5.99636 7.91896 6.05278 7.78102 6.14245C7.511 6.31796 7.11077 6.50219 6.65259 6.71856C6.2215 6.92213 5.73531 7.15602 5.38386 7.41257C5.20893 7.54027 5.02635 7.70217 4.90683 7.90467C4.77558 8.12707 4.71743 8.40914 4.83495 8.70294L5.76342 8.33155C5.78301 8.38051 5.76158 8.42387 5.76804 8.41292C5.78625 8.38208 5.84237 8.31597 5.97348 8.22026C6.2341 8.03001 6.6293 7.83544 7.0796 7.6228C7.5028 7.42296 7.98395 7.20323 8.32601 6.98089C8.4941 6.87163 8.67918 6.73066 8.80429 6.55203C8.94561 6.35026 9.03403 6.05503 8.88021 5.74741L7.98579 6.19462ZM4.82509 8.6761C5.3215 10.1575 5.72736 11.3561 6.33582 12.5116C6.94911 13.6763 7.75938 14.7822 9.05394 16.1129L9.77069 15.4155C8.52807 14.1383 7.78033 13.1086 7.22064 12.0457C6.65611 10.9736 6.274 9.85268 5.77328 8.35838L4.82509 8.6761ZM9.05394 16.1129C9.25476 16.3193 9.5112 16.4011 9.76986 16.3778C9.99995 16.3571 10.2073 16.2564 10.3723 16.1538C10.7014 15.9491 11.0457 15.616 11.3404 15.3267C11.6584 15.0145 11.9294 14.7421 12.1635 14.5694C12.2806 14.4829 12.3501 14.4514 12.3787 14.4433C12.3921 14.4395 12.3228 14.4578 12.2502 14.4044L12.8421 13.5984C12.597 13.4184 12.323 13.4199 12.1071 13.4808C11.9066 13.5374 11.7225 13.652 11.5697 13.7648C11.2638 13.9905 10.9292 14.329 10.6398 14.6131C10.3271 14.9202 10.0622 15.169 9.84412 15.3047C9.79367 15.336 9.75355 15.3562 9.72316 15.3684C9.69248 15.3807 9.67911 15.3819 9.68024 15.3818C9.70428 15.3796 9.74957 15.3938 9.77069 15.4155L9.05394 16.1129ZM12.2502 14.4044C13.4019 15.2502 14.1071 15.9478 14.5868 16.7129C15.066 17.4773 15.3442 18.3467 15.5806 19.5798L16.5627 19.3914C16.3163 18.1064 16.0085 17.0979 15.434 16.1817C14.86 15.2663 14.0438 14.4808 12.8421 13.5984L12.2502 14.4044ZM15.5971 19.6429C15.5519 19.5068 15.6185 19.4269 15.5971 19.4589C15.5798 19.4847 15.5274 19.5442 15.4144 19.6271C15.1928 19.7895 14.8274 19.977 14.3459 20.1375C13.3864 20.4573 12.0555 20.6405 10.6856 20.3664L10.4894 21.347C12.0564 21.6605 13.565 21.4519 14.6621 21.0862C15.2088 20.9039 15.676 20.6752 16.0056 20.4336C16.1681 20.3145 16.3209 20.1751 16.4277 20.0158C16.5304 19.8626 16.6401 19.6113 16.5463 19.3282L15.5971 19.6429ZM10.6856 20.3664C9.50792 20.1308 8.91671 19.906 8.35686 19.4542C7.75933 18.972 7.18088 18.2223 6.08407 16.8263L5.29775 17.4441C6.35542 18.7903 7.01957 19.6601 7.72886 20.2324C8.47583 20.8352 9.25567 21.1001 10.4894 21.347L10.6856 20.3664ZM6.10483 16.8547C4.51924 14.5149 3.76974 13.2048 2.61449 10.8437L1.71625 11.2832C2.89187 13.6859 3.66483 15.0367 5.277 17.4157L6.10483 16.8547ZM2.62488 10.8664C2.04779 9.52091 1.7731 8.5432 1.68242 7.70454C1.59244 6.87232 1.68031 6.14746 1.86995 5.29629L0.893879 5.07883C0.690773 5.99046 0.582312 6.83252 0.688215 7.81204C0.793424 8.78512 1.10683 9.86396 1.70585 11.2606L2.62488 10.8664ZM1.86995 5.29629C1.94155 4.97492 2.16408 4.53669 2.50625 4.04413C2.84129 3.56183 3.26329 3.0667 3.68837 2.63709C4.11646 2.20445 4.52977 1.85639 4.84327 1.65611C5.00552 1.55245 5.10686 1.51074 5.15068 1.50018C5.21226 1.48536 5.01434 1.54855 4.88316 1.35178L5.71521 0.797074C5.48609 0.453406 5.10393 0.482861 4.91658 0.52797C4.71149 0.577355 4.49924 0.689249 4.3049 0.813399C3.90523 1.06873 3.43336 1.47306 2.97753 1.93374C2.51869 2.39745 2.05803 2.93657 1.68497 3.4736C1.31904 4.00037 1.00801 4.56656 0.893879 5.07883L1.86995 5.29629ZM5.00463 1.47845C5.96253 2.17682 6.58002 2.74936 7.01574 3.41629C7.44955 4.0803 7.72778 4.87596 7.93983 6.05924L8.92415 5.88284C8.69943 4.62887 8.38795 3.6883 7.85291 2.86935C7.31978 2.05332 6.58925 1.39619 5.59374 0.670402L5.00463 1.47845ZM8.4447 6.47088L8.44572 6.47085L8.42028 5.47118L8.41927 5.4712L8.4447 6.47088ZM22.9259 16.0476H17.051V17.0476H22.9259V16.0476ZM22.4259 4.79583V5.38346H23.4259V4.79583H22.4259ZM22.4259 5.38346V16.5476H23.4259V5.38346H22.4259ZM22.6189 4.98878L13.805 11.844L14.419 12.6334L23.2328 5.77813L22.6189 4.98878ZM14.4308 11.8535L8.75074 7.15276L8.11318 7.92315L13.7932 12.6239L14.4308 11.8535ZM8.9196 5.86046L8.65309 4.68525L7.67786 4.90642L7.94437 6.08162L8.9196 5.86046ZM8.16547 5.29583H22.9259V4.29583H8.16547V5.29583Z" fill="#08172E"/>
</svg>
