<svg width="19" height="20" viewBox="0 0 19 20" fill="none" xmlns="http://www.w3.org/2000/svg">
<path d="M2.44146 17.9544L0.77002 0H18.3792L16.7753 17.9544L9.49864 20L2.44146 17.9544Z" fill="#FF6542"/>
<path d="M15.4729 16.7521L16.6696 1.53845H9.66016V18.3761L15.4729 16.7521Z" fill="#26497D"/>
<path d="M15.3874 3.50427H9.66664L9.66665 10.2564H12.3956V13.0769L9.66016 13.8462L9.66017 16.1538L14.6181 14.8718L15.0455 7.86325H10.515L15.3874 5.81196V3.50427Z" fill="#FF6542"/>
<path d="M3.67627 3.50427H9.65998L9.65998 10.2564V13.8462V16.1538L4.70205 14.8718L4.53108 11.5385H6.66812V13.3333L9.65998 13.8462V10.2564H4.18916V7.86325L9.31805 5.64102H3.84723L3.67627 3.50427Z" fill="white"/>
<path d="M3.67627 3.50427H9.65998L9.65998 10.2564V13.8462V16.1538L4.70205 14.8718L4.53108 11.5385H6.66812V13.3333L9.65998 13.8462V10.2564H4.18916V7.86325L9.31805 5.64102H3.84723L3.67627 3.50427Z" fill="black" fill-opacity="0.2"/>
</svg>
