<svg width="28" height="20" viewBox="0 0 28 20" fill="none" xmlns="http://www.w3.org/2000/svg">
<path d="M0.646973 18.75V11.75H10.147V14.25C10.147 15 10.397 15 11.647 15H16.147C17.647 15 17.647 15 17.647 14.25V11.75H27.147V18.75C27.147 20 26.397 20 25.647 20L2.14698 19.75C1.64697 19.75 0.646973 19.75 0.646973 18.75Z" fill="#08172E"/>
<path d="M12.147 11.75H15.647V12C15.647 12.9665 14.8635 13.75 13.897 13.75C12.9305 13.75 12.147 12.9665 12.147 12V11.75Z" fill="#D9DBDC"/>
<path d="M0.896973 5.25003V9.25012H27.147V5.25011C27.147 3.74998 26.647 3.24997 25.397 3.25011H20.647C20.647 1.75003 19.897 -3.08358e-05 18.147 2.66827e-05L10.147 0.000100661C8.64698 5.07884e-05 7.64698 1.75005 7.64698 3.25011L2.64698 3.25003C1.39697 3.25003 0.896973 4.00003 0.896973 5.25003Z" fill="#08172E"/>
<path d="M18.647 3.25H9.14697C9.14697 2.25 9.64697 1.5 10.647 1.5H17.147C18.147 1.5 18.647 2.25 18.647 3.25Z" fill="white"/>
</svg>
