<svg width="15" height="20" viewBox="0 0 15 20" fill="none" xmlns="http://www.w3.org/2000/svg">
<path d="M0.899414 3.33333C0.899414 1.49238 2.3918 0 4.23275 0H7.56608V6.66667H4.23275C2.3918 6.66667 0.899414 5.17428 0.899414 3.33333Z" fill="#E86712"/>
<path d="M0.899414 10C0.899414 8.15907 2.3918 6.66669 4.23275 6.66669H7.56608V13.3334H4.23275C2.3918 13.3334 0.899414 11.841 0.899414 10Z" fill="#88498F"/>
<path d="M0.899414 16.6666C0.899414 14.8257 2.3918 13.3333 4.23275 13.3333H7.56608V16.6666C7.56608 18.5076 6.0737 20 4.23275 20C2.3918 20 0.899414 18.5076 0.899414 16.6666Z" fill="#08172E"/>
<path d="M14.2329 3.33335C14.2329 5.1743 12.7405 6.66669 10.8996 6.66669L7.56624 6.66669L7.56624 1.99212e-05L10.8996 2.02126e-05C12.7405 2.03735e-05 14.2329 1.4924 14.2329 3.33335Z" fill="#26497D"/>
<path d="M14.2329 9.99998C14.2329 11.8409 12.7405 13.3333 10.8996 13.3333C9.05863 13.3333 7.56624 11.8409 7.56624 9.99998C7.56624 8.15903 9.05863 6.66665 10.8996 6.66665C12.7405 6.66665 14.2329 8.15903 14.2329 9.99998Z" fill="#86ACE3"/>
</svg>
