<svg width="18" height="20" viewBox="0 0 18 20" fill="none" xmlns="http://www.w3.org/2000/svg">
<path d="M1.79055 17.9544L0.114746 0H17.7699L16.1618 17.9544L8.86616 20L1.79055 17.9544Z" fill="#FF6542"/>
<path d="M4.44808 14.9113L9.00153 16.1454V13.8462L6.49629 13.2037L6.36087 11.4286H4.17725L4.44808 14.9113Z" fill="#D9DBDC"/>
<path d="M4.05864 10.3466H9.00141L8.98448 8.14878H6.07299L5.88679 5.88335H8.98448V3.66864H3.47705L4.05864 10.3466Z" fill="#D9DBDC"/>
<path d="M11.6932 10.3466H9.00179V13.8461L11.4055 13.1868L11.6932 10.3466Z" fill="#26497D"/>
<path d="M9.00179 18.4108V16.1454L13.4875 14.9112L14.0969 8.09804L8.98486 8.14876V5.88334H14.3339L14.5032 3.66863H8.98486V1.48773H16.179L14.8248 16.8047L9.00179 18.4108Z" fill="#26497D"/>
</svg>
