<svg width="21" height="20" viewBox="0 0 21 20" fill="none" xmlns="http://www.w3.org/2000/svg">
<rect x="0.393555" width="20" height="20" rx="4" fill="#FF6542"/>
<path d="M15.5185 10.6917C16.1185 10.6667 16.4287 10.9533 16.8352 11.5334L18.2769 10.5834C17.7292 9.69856 17.3304 9.34803 16.3602 9.13335C15.1957 8.9916 14.5685 9.07502 13.7269 9.68335C12.9651 10.3723 12.7432 10.9082 12.9435 12.3C13.1935 13.4 13.9064 13.8884 15.4435 14.5083C16.5793 14.9913 17.0269 15.2833 16.9269 16.0083C16.8269 16.7333 16.1519 17.0667 14.7769 16.5583C14.2769 16.3334 14.1144 16.0867 13.8103 15.6251L13.8102 15.625L12.3102 16.5C13.5699 18.1328 14.3755 18.5446 15.9769 18.425C17.2852 18.2167 18.8352 17.1917 18.8352 15.8417C18.8084 14.4201 18.3822 13.6755 15.7019 12.5917C15.0769 12.3 14.7596 12.1671 14.6852 11.5334C14.6852 10.975 15.0185 10.7417 15.5185 10.6917Z" fill="white"/>
<path d="M11.2769 9.18335H9.41019L9.38519 15.9334C9.36019 16.4417 9.00186 16.75 8.42686 16.75C7.69352 16.75 7.41638 16.2051 7.18519 15.7834L5.65186 16.7C6.00186 17.425 6.61354 17.9915 7.18519 18.2084C9.52686 18.9 11.1519 17.8584 11.2769 15.9334V9.18335Z" fill="white"/>
</svg>
