<svg width="20" height="22" viewBox="0 0 20 22" fill="none" xmlns="http://www.w3.org/2000/svg">
<path d="M6.9738 7.59259C6.9738 7.59259 6.9738 15.5926 6.9738 16.5556C6.9738 17.5185 5.5417 18.3827 4.47997 17.8642C3.41825 17.3457 1.39355 15.8889 1.39355 15.8889V6.23457L10.1096 1L18.8997 6.23457V15.8889L10.1096 21L7.88738 19.7654M15.517 9.24691C15.0154 7.98847 14.2578 7.44444 12.7516 7.44444C10.8502 7.44444 9.5417 8.11111 9.49232 9.24691C9.49232 10.4074 10.5756 10.6731 12.7516 11.0988C15.1707 11.5157 15.8627 12.1605 15.8627 13.0247C15.8627 14.0617 14.0355 14.9012 12.7516 14.8519C10.8503 14.6543 9.35034 14.1506 9.29479 13.0247" stroke="#FF6542" stroke-width="2" stroke-linecap="round" stroke-linejoin="round"/>
</svg>
