<svg width="21" height="20" viewBox="0 0 21 20" fill="none" xmlns="http://www.w3.org/2000/svg">
<rect x="0.23291" width="20" height="20" rx="4" fill="#FF6542"/>
<path d="M4.58887 5.4098V13.911H6.34531V11.2178H7.89097C9.41322 11.2178 10.8003 9.83649 10.7481 8.2201C10.6976 6.65584 9.27271 5.40981 7.89097 5.4098H4.58887Z" fill="white"/>
<path d="M11.5912 12.0843V13.7002C12.6779 14.1873 13.7224 14.192 14.5654 14.0515C15.4085 13.911 16.2985 13.1081 16.2985 12.0843C16.2985 10.726 15.2446 10.4047 14.3313 9.97656C13.4179 9.54843 13.254 9.55501 13.3008 9.25056C13.3476 8.94611 13.6989 8.73534 14.3313 8.78218C14.9636 8.82902 15.9238 9.25056 15.9238 9.25056V7.63464C14.7039 7.29334 14.0942 7.25525 13.09 7.49412C12.6919 7.68148 11.5912 8.14986 11.5912 9.25056C11.5912 10.3513 12.2426 10.8948 13.09 11.2178C13.9374 11.5407 14.6416 11.8969 14.5654 12.2014C14.4893 12.5058 14.145 12.689 13.09 12.5761C12.4656 12.4831 12.1455 12.3551 11.5912 12.0843Z" fill="white"/>
<path d="M4.58887 5.4098V13.911H6.34531V11.2178H7.89097C9.41322 11.2178 10.8003 9.83649 10.7481 8.2201C10.6976 6.65584 9.27271 5.40981 7.89097 5.4098H4.58887Z" stroke="none" stroke-linejoin="round"/>
<path d="M11.5912 12.0843V13.7002C12.6779 14.1873 13.7224 14.192 14.5654 14.0515C15.4085 13.911 16.2985 13.1081 16.2985 12.0843C16.2985 10.726 15.2446 10.4047 14.3313 9.97656C13.4179 9.54843 13.254 9.55501 13.3008 9.25056C13.3476 8.94611 13.6989 8.73534 14.3313 8.78218C14.9636 8.82902 15.9238 9.25056 15.9238 9.25056V7.63464C14.7039 7.29334 14.0942 7.25525 13.09 7.49412C12.6919 7.68148 11.5912 8.14986 11.5912 9.25056C11.5912 10.3513 12.2426 10.8948 13.09 11.2178C13.9374 11.5407 14.6416 11.8969 14.5654 12.2014C14.4893 12.5058 14.145 12.689 13.09 12.5761C12.4656 12.4831 12.1455 12.3551 11.5912 12.0843Z" stroke="none" stroke-linejoin="round"/>
<path d="M6.36865 9.67212V6.93207H7.72697C8.05483 6.93207 8.92395 7.44729 8.94476 8.1967C8.96558 8.94612 8.42954 9.67212 7.72697 9.67212H6.36865Z" fill="#FF6542"/>
</svg>
