<svg width="20" height="22" viewBox="0 0 20 22" fill="none" xmlns="http://www.w3.org/2000/svg">
<path d="M9.94118 5.23529C8.20522 5.37398 6.70549 5.76471 5.94115 7.35294C5.17681 8.94118 4.88236 10.8529 6.41179 13.2353C7.94121 15.6176 6.82364 17.4706 7.58824 17.4706C8.35283 17.4706 9.41176 17.4706 10.1764 17.4706M7.35294 19.3529H12.5294M8.52941 21H11.3529M3.35294 9.47059H1M5.23529 4.76471L3.58824 3.11765M9.94118 3.11765V1M14.8824 4.76471L16.2941 3.35294M16.7647 9.47059H18.6471M10.1765 7.11765C10.6049 7.11765 10.9971 7.18022 11.3529 7.29676M10.1764 15.1176C10.6261 15.1176 11.0758 15.0371 11.4998 14.8824M11.3529 7.29676L12.0588 5.94118M11.3529 7.29676C12.4323 7.65019 13.1777 8.49993 13.586 9.60549M13.586 9.60549C13.7826 10.1376 13.9011 10.7291 13.9412 11.3529C13.9412 11.8708 13.85 12.3431 13.6877 12.7647M13.586 9.60549C14.1842 9.36903 15.1176 9 15.1176 9M13.6877 12.7647C13.2888 13.8012 12.4601 14.532 11.4998 14.8824M13.6877 12.7647L14.4027 13L15.1176 13.2353M11.4998 14.8824L12.0588 16.2941" stroke="#08172E" stroke-linecap="round"/>
</svg>
